<svg xmlns="http://www.w3.org/2000/svg" viewBox="0 0 32 32" fill="none">
  <defs>
    <linearGradient id="socialsync-grad" x1="0%" y1="0%" x2="100%" y2="100%">
      <stop offset="0%" stop-color="#7c3aed" />
      <stop offset="100%" stop-color="#d946ef" />
    </linearGradient>
  </defs>
  <!-- Background circular network frame -->
  <path d="M16 2A14 14 0 1 0 30 16A14 14 0 0 0 16 2ZM16 26A10 10 0 1 1 26 16A10 10 0 0 1 16 26Z" fill="url(#socialsync-grad)" opacity="0.15" />
  
  <!-- Interlocking S/sync wave -->
  <path d="M12 20C12 22.2091 13.7909 24 16 24C18.2091 24 20 22.2091 20 20C20 17.7909 18.2091 16 16 16C13.7909 16 12 14.2091 12 12C12 9.79086 13.7909 8 16 8C18.2091 8 20 9.79086 20 12" stroke="url(#socialsync-grad)" stroke-width="3" stroke-linecap="round" stroke-linejoin="round" />
  
  <!-- Sync nodes -->
  <circle cx="12" cy="12" r="2.5" fill="#ffffff" stroke="#7c3aed" stroke-width="1.5" />
  <circle cx="20" cy="20" r="2.5" fill="#ffffff" stroke="#d946ef" stroke-width="1.5" />
  <circle cx="16" cy="16" r="2.5" fill="#ffffff" stroke="#a855f7" stroke-width="1.5" />
</svg>